Walt Disney.Mulan.1998 [Eng-Ro] ACC.5.1. H264_MarGelaTu.mp4 - http://www.imdb.com/title/tt0120762/
-----------------------------------------------------------------------------------

Source: DVD.5
      Format : MPEG-4
      Format profile : Base Media / Version 2
      Codec ID : mp42
      File size : 1 014 MiB
      Duration : 1h 24mn
      Overall bit rate : 1 682 Kbps
     
   Video #1
      ID : 1
      Format : AVC
      Format/Info : Advanced Video Codec
      Format profile : High@L3.1
      Format settings, CABAC : Yes
      Format settings, ReFrames : 9 frames
      Codec ID : avc1
      Codec ID/Info : Advanced Video Coding
      Duration : 1h 24mn
      Bit rate mode : Variable
      Bit rate : 1 293 Kbps
      Width : 720 pixels
      Height : 608 pixels
      Display aspect ratio : 1.688
      Frame rate mode : Constant
      Frame rate : 25.000 fps
      Resolution : 24 bits
      Colorimetry : 4:2:0
      Scan type : Progressive
      Bits/(Pixel*Frame) : 0.118
      Stream size : 779 MiB (77%)
      Writing library : x264 core 79
     
   Audio #2
      ID : 2,3
      Format : AAC
      Format/Info : Advanced Audio Codec
      Format version : Version 4
      Format profile : LC
      Format settings, SBR : No
      Codec ID : 40
      Duration : 1h 24mn
      Bit rate mode : Variable
      Bit rate : 192 Kbps
      Maximum bit rate : 238 Kbps
      Channel(s) : 6 channels
      Channel positions : Front: L C R, Rear: L R, LFE
      Sampling rate : 48.0 KHz
      Resolution : 16 bits
      Stream size : 116 MiB (11%)
      Language : English, Romanian

------------------------------------------------------------------------------

Mulan.2.2004 [multi.language] ACC.5.1. H264_MarGelaTu.mp4 - http://www.imdb.com/title/tt0279967/
-------------------------------------------------------------------------------------------------------------------------------


      Format : MPEG-4
      Format profile : Base Media / Version 2
      Codec ID : mp42
      File size : 1 016 MiB
      Duration : 1h 15mn
      Overall bit rate : 1 880 Kbps
      
   Video #1
      ID : 1
      Format : AVC
      Format/Info : Advanced Video Codec
      Format profile : High@L3.1
      Format settings, CABAC : Yes
      Format settings, ReFrames : 9 frames
      Codec ID : avc1
      Codec ID/Info : Advanced Video Coding
      Duration : 1h 15mn
      Bit rate mode : Variable
      Bit rate : 1 006 Kbps
      Width : 720 pixels
      Height : 576 pixels
      Display aspect ratio : 16:9
      Frame rate mode : Constant
      Frame rate : 25.000 fps
      Standard : PAL
      Resolution : 24 bits
      Colorimetry : 4:2:0
      Scan type : Progressive
      Bits/(Pixel*Frame) : 0.097
      Stream size : 544 MiB (54%)
      Writing library : x264 core 79
    
   Audio #2
      ID : 2,3,
      Format : AAC
      Format/Info : Advanced Audio Codec
      Format version : Version 4
      Format profile : LC
      Format settings, SBR : No
      Codec ID : 40
      Duration : 1h 15mn
      Bit rate mode : Variable
      Bit rate : 192 Kbps
      Maximum bit rate : 255 Kbps
      Channel(s) : 6 channels
      Channel positions : Front: L C R, Rear: L R, LFE
      Sampling rate : 48.0 KHz
      Resolution : 16 bits
      Stream size : 104 MiB (10%)
      Language : English, Romanian 

Format : AAC
      Format/Info : Advanced Audio Codec
      Format version : Version 4
      Format profile : LC
      Format settings, SBR : No
      Codec ID : 40
      Duration : 1h 15mn
      Bit rate mode : Variable
      Bit rate : 159 Kbps
      Maximum bit rate : 226 Kbps
      Channel(s) : 2 channels
      Channel positions : L R
      Sampling rate : 48.0 KHz
      Resolution : 16 bits
      Stream size : 86.2 MiB (8%)
      Language : Czech, Hungarian, Arabic


-----------------------------------------------------------------------------------

Everything ok? I hope that the transfer was not too slow ...!
Enjoy and send, send send ... :)